# xmcd
#
# Track frame offsets:
#	150
#	27206
#	42713
#	76715
#	89199
#	123341
#	135361
#	167767
#	172249
#	194562
#	201201
#	229305
#	238901
#	246998
#	272993
#	287374
#	295670
#
# Disc length: 4539 seconds
#
# Revision: 7
# Processed by: cddbd v1.5.1PL0 Copyright (c) Steve Scherf et al.
# Submitted via: EasyCDDAExtractor 7.0.5.1
#
DISCID=0311b911
DTITLE=Gustav Gründgens - Faust - Der Tragödie erster Teil - Cd2v2[CD2]
DYEAR=2004
DGENRE=Speech
TTITLE0=Hexenküche
TTITLE1=Straße
TTITLE2=Abend, ein kleines reinliches Zimmer
TTITLE3=Spaziergang
TTITLE4=Der Nachbarin Haus
TTITLE5=Straße
TTITLE6=Garten
TTITLE7=Ein Gartenhäuschen
TTITLE8=Wald und Höhle
TTITLE9=Gretchens Stube
TTITLE10=Marthens Garten
TTITLE11=Am Brunnen
TTITLE12=Zwinger
TTITLE13=Nacht, Straße vor Gretchens Türe
TTITLE14=Dom
TTITLE15=Trüber Tag, Feld
TTITLE16=Kerker
EXTD=In der Gründgens-Inszenierung des Düsseldorfer Shauspielhauses\nFaust: Pa
EXTD=ul Hartmann, Mephisto: Gustav Gründgens, Margarethe: Käthe Gold, Marthe S
EXTD=chwerdtlein: Elisabeth Flickenschildt u.v.a\nMusik: Mark Lothar\nAufnahme
EXTD=: 1954 ID3G: 12
EXTT0=
EXTT1=
EXTT2=
EXTT3=
EXTT4=
EXTT5=
EXTT6=
EXTT7=
EXTT8=
EXTT9=
EXTT10=
EXTT11=
EXTT12=
EXTT13=
EXTT14=
EXTT15=
EXTT16=
PLAYORDER=
